<?xml version="1.0" standalone="no"?>
<!DOCTYPE svg PUBLIC "-//W3C//DTD SVG 20010904//EN"
 "http://www.w3.org/TR/2001/REC-SVG-20010904/DTD/svg10.dtd">
<svg version="1.0" xmlns="http://www.w3.org/2000/svg"
 width="1007.000000pt" height="955.000000pt" viewBox="0 0 1007.000000 955.000000"
 preserveAspectRatio="xMidYMid meet">

<g transform="translate(0.000000,955.000000) scale(0.100000,-0.100000)"
fill="#000000" stroke="none">
<path d="M4335 9535 c-1137 -105 -2176 -596 -2966 -1402 -889 -907 -1369
-2083 -1369 -3353 0 -762 164 -1463 500 -2136 138 -277 206 -400 255 -465 26
-35 82 -110 123 -168 470 -661 1115 -1204 1835 -1545 479 -228 961 -365 1517
-433 211 -26 834 -26 1040 0 579 72 1052 209 1544 445 764 369 1436 960 1910
1681 117 179 197 319 297 526 206 423 337 831 413 1280 54 317 61 414 61 815
0 400 -8 508 -61 815 -13 77 -24 143 -24 148 0 4 42 7 93 7 172 0 315 -57 430
-173 56 -56 70 -66 86 -58 28 16 46 70 45 137 -1 107 -50 176 -175 248 -103
59 -276 86 -425 67 -53 -7 -100 -9 -104 -4 -4 4 -17 46 -30 93 -128 492 -404
1069 -716 1501 -309 429 -688 808 -1104 1106 -628 449 -1355 739 -2115 843
-296 40 -770 51 -1060 25z m817 -80 c1429 -126 2696 -882 3495 -2085 258 -388
471 -848 593 -1284 22 -77 39 -141 37 -142 -1 -1 -58 -21 -127 -44 -405 -134
-781 -413 -1190 -880 -84 -96 -103 -119 -219 -270 -45 -58 -94 -121 -109 -140
-51 -63 -174 -241 -323 -465 -122 -184 -178 -273 -294 -466 -5 -9 -62 -104
-126 -210 -64 -107 -168 -282 -231 -389 -64 -107 -151 -256 -195 -330 -114
-193 -377 -626 -459 -755 -162 -256 -193 -302 -268 -408 -152 -215 -274 -373
-369 -477 -53 -58 -102 -110 -109 -115 -104 -85 -109 -54 -51 300 19 121 44
224 94 385 23 74 45 149 49 165 19 73 334 982 398 1150 17 44 47 125 67 180
61 168 198 517 270 690 26 61 55 133 65 160 10 28 48 116 84 198 36 81 66 149
66 151 0 2 20 46 44 98 24 51 58 127 76 168 18 41 69 154 115 250 45 96 99
211 120 255 79 168 114 286 101 339 -23 94 -167 60 -357 -85 -107 -81 -191
-161 -313 -298 -55 -61 -104 -111 -108 -111 -4 0 -7 708 -6 1573 l3 1572 180
5 179 5 10 33 c6 20 6 47 0 70 l-9 37 -180 6 c-99 3 -181 6 -182 7 -2 1 -3 42
-3 92 0 82 2 90 23 101 12 7 25 17 29 23 4 6 8 64 8 128 0 135 -2 138 -89 138
-81 0 -87 -11 -81 -154 l5 -119 29 -17 c29 -15 30 -18 30 -95 1 -53 -3 -83
-12 -92 -18 -17 -193 -18 -210 -1 -13 13 -16 126 -6 166 4 12 12 22 20 22 7 0
18 9 24 19 13 26 13 248 0 256 -22 13 -117 17 -138 6 -21 -11 -22 -19 -22
-134 0 -127 6 -147 42 -147 21 0 19 7 22 -100 2 -52 -2 -88 -8 -92 -13 -9
-188 -11 -210 -2 -13 5 -16 23 -16 88 0 78 1 83 30 108 l30 26 0 121 c0 138
-2 141 -89 141 -75 0 -81 -10 -81 -143 0 -62 4 -117 8 -122 4 -6 18 -18 32
-26 23 -15 25 -22 25 -95 -1 -44 -4 -85 -9 -92 -10 -16 -197 -17 -214 0 -12
12 -16 125 -6 165 3 12 17 24 30 27 24 6 24 8 24 134 0 86 -4 132 -12 140 -16
16 -119 15 -141 -1 -15 -11 -17 -28 -15 -137 l3 -125 28 -13 c28 -13 28 -14
25 -105 l-3 -92 -99 -3 c-65 -2 -103 1 -112 9 -11 9 -14 34 -13 96 2 79 4 84
28 96 26 12 26 14 29 134 3 144 -2 153 -79 153 -87 0 -89 -3 -89 -140 0 -65 3
-125 6 -134 3 -9 17 -16 30 -16 25 0 25 0 22 -97 l-3 -98 -107 -3 c-118 -3
-124 0 -122 63 1 17 2 53 3 81 1 43 5 53 21 57 30 8 40 48 40 157 0 121 -6
130 -90 130 -83 0 -88 -11 -81 -159 5 -100 8 -115 26 -125 32 -18 35 -26 35
-113 0 -98 4 -95 -135 -91 l-90 3 -3 96 c-2 90 -1 97 18 102 30 8 40 47 40
154 0 121 -8 133 -90 133 -37 0 -62 -5 -69 -14 -8 -9 -11 -55 -9 -137 l3 -124
28 -13 c28 -13 28 -14 25 -105 l-3 -92 -90 -3 c-140 -5 -135 -8 -135 98 0 82
2 90 23 101 12 7 25 17 29 23 4 6 8 64 8 128 0 106 -2 118 -19 128 -27 14
-124 13 -139 -2 -8 -8 -12 -51 -12 -126 l0 -114 30 -28 c30 -28 31 -30 28
-117 l-3 -88 -50 -3 c-27 -2 -78 -1 -112 3 l-63 7 0 92 0 92 30 11 30 11 2
104 c1 123 0 140 -12 152 -13 13 -129 9 -146 -5 -10 -8 -14 -38 -14 -115 0
-109 10 -154 34 -154 19 0 28 -47 24 -130 l-3 -65 -160 -3 c-112 -2 -161 -6
-167 -15 -13 -20 -9 -114 5 -126 8 -6 75 -12 168 -13 l154 -3 0 -1130 0 -1130
-55 1 c-89 3 -360 -15 -420 -27 -237 -46 -347 -78 -560 -161 -124 -49 -397
-185 -478 -238 -32 -20 -91 -59 -132 -85 -41 -26 -93 -63 -115 -81 -22 -19
-92 -75 -155 -126 -208 -167 -498 -465 -665 -682 -136 -178 -293 -443 -373
-628 -85 -198 -159 -456 -183 -633 -14 -102 -18 -369 -7 -430 19 -99 -145 292
-226 544 -116 355 -185 712 -217 1115 -15 193 -6 674 16 856 131 1092 589
2044 1350 2805 787 787 1806 1259 2925 1354 164 14 594 12 772 -4z m-1192
-2475 c0 -1098 -1 -1160 -17 -1160 -32 1 -203 46 -211 56 -4 5 -6 516 -4 1137
l2 1127 115 0 115 0 0 -1160z m280 -75 c0 -922 -3 -1235 -11 -1235 -7 0 -35
15 -63 34 -28 18 -69 43 -92 54 -22 11 -46 27 -52 35 -9 10 -12 301 -12 1168
0 635 0 1160 0 1167 0 9 30 12 115 12 l115 0 0 -1235z m270 1218 c3 -370 -2
-2763 -6 -2764 -3 0 -28 33 -56 73 -27 40 -75 100 -106 133 l-57 60 3 1258 3
1257 109 0 c98 0 110 -2 110 -17z m290 -2402 l0 -2419 -110 -163 c-61 -90
-115 -165 -120 -167 -7 -3 -10 194 -10 571 0 567 0 577 24 699 37 187 49 307
49 483 0 163 -12 287 -40 385 -8 30 -20 89 -24 130 -9 68 -9 2875 -1 2893 2 4
55 7 118 7 l114 0 0 -2419z m285 2397 c3 -13 4 -1004 3 -2203 l-3 -2180 -91
-135 c-50 -74 -99 -150 -108 -167 -9 -18 -21 -33 -26 -33 -11 0 -14 4722 -3
4733 3 4 55 7 114 7 104 0 109 -1 114 -22z m280 -1983 l0 -2000 -110 -156
c-67 -95 -113 -152 -117 -145 -9 13 -11 4267 -2 4290 5 14 23 16 118 14 l111
-3 0 -2000z m279 1989 c3 -9 6 -815 6 -1793 l0 -1778 -55 -79 c-30 -43 -80
-116 -111 -161 -31 -46 -60 -83 -65 -83 -5 0 -9 839 -9 1955 l0 1955 114 0
c95 0 115 -3 120 -16z m276 -1603 l0 -1619 -43 -54 c-24 -29 -73 -92 -109
-140 -46 -60 -68 -82 -72 -71 -8 21 -7 3488 1 3496 3 4 55 7 115 7 l108 0 0
-1619z m-2255 -801 c14 -11 15 -167 13 -1294 l-3 -1281 -109 -210 c-60 -115
-112 -214 -116 -220 -9 -12 -200 -385 -385 -750 -272 -539 -365 -811 -365
-1073 0 -160 39 -222 142 -222 107 1 251 92 433 276 95 96 302 318 356 381 20
24 39 43 42 43 4 0 7 -153 7 -341 0 -319 1 -340 18 -337 16 3 17 32 23 381 l6
378 30 37 c16 20 64 83 107 139 43 57 82 103 87 103 5 0 9 -208 9 -515 0 -456
2 -516 15 -522 9 -3 18 -3 20 -1 3 2 5 257 5 565 l1 560 62 85 c34 47 85 118
113 157 28 39 54 68 58 64 3 -3 6 -327 6 -720 0 -706 0 -713 20 -713 20 0 20
7 20 749 0 471 4 759 10 776 5 14 56 91 112 170 l103 145 5 -907 c3 -500 9
-914 13 -920 12 -19 37 -16 38 5 1 9 2 447 3 972 l1 955 110 167 c61 92 113
167 118 168 4 0 7 -506 7 -1124 0 -618 3 -1131 6 -1140 7 -19 34 -21 35 -3 1
6 0 49 -1 94 -1 53 3 83 9 83 6 0 11 -8 11 -18 0 -28 37 -123 57 -144 21 -24
77 -48 109 -48 73 0 201 78 328 199 61 59 250 278 333 386 165 215 530 771
841 1280 30 50 72 117 92 150 71 115 370 614 422 705 93 162 235 386 431 680
490 733 854 1131 1312 1429 88 58 288 161 362 187 47 16 76 25 147 43 l34 8
17 -91 c27 -149 53 -351 66 -510 15 -195 7 -704 -15 -886 -71 -583 -222 -1088
-482 -1600 -669 -1324 -1935 -2257 -3389 -2499 -302 -50 -383 -56 -775 -56
-392 0 -501 8 -780 56 -1111 191 -2095 763 -2823 1639 -109 132 -111 136 -40
104 145 -64 217 -79 383 -78 168 1 255 19 431 89 240 97 392 200 609 415 128
126 154 156 272 310 173 228 343 526 423 745 42 115 94 310 117 434 24 138 30
398 9 471 -46 166 -99 256 -187 315 -90 62 -158 80 -289 80 -165 -1 -258 -29
-390 -118 -227 -154 -346 -316 -346 -473 0 -122 42 -166 158 -165 74 0 103 17
158 89 73 95 92 235 44 329 l-20 38 38 32 c45 39 149 95 217 118 31 11 81 16
142 16 79 0 104 -4 149 -25 102 -46 165 -138 196 -285 22 -105 4 -330 -42
-521 -34 -138 -148 -436 -209 -545 -288 -512 -507 -773 -843 -1004 -59 -40
-224 -123 -292 -146 -245 -83 -451 -83 -633 2 -119 55 -247 205 -310 363 -54
136 -66 213 -66 420 0 311 43 517 186 890 32 82 181 375 234 460 131 208 246
376 329 480 385 478 807 799 1300 987 104 40 324 98 435 114 82 12 337 4 355
-11z m170 -49 c22 -10 54 -24 72 -32 18 -7 37 -23 43 -34 7 -14 10 -300 8
-945 l-3 -925 -64 -130 c-54 -111 -113 -234 -147 -310 -8 -18 -24 2378 -16
2398 5 11 57 0 107 -22z m301 -259 c86 -143 104 -232 104 -497 1 -192 -14
-342 -45 -457 -31 -118 -44 -164 -60 -213 -9 -27 -25 -79 -36 -115 -11 -36
-29 -90 -41 -120 -11 -30 -25 -68 -30 -83 -8 -20 -13 -25 -19 -15 -9 14 -11
1627 -2 1641 9 15 87 -70 129 -141z m2394 -119 c0 -13 -113 -214 -173 -308
-32 -49 -97 -153 -144 -230 -47 -77 -108 -174 -134 -216 -95 -150 -194 -324
-304 -533 -62 -118 -69 -128 -77 -105 -5 13 -8 119 -6 236 3 201 4 213 25 240
13 15 62 82 110 148 169 234 326 418 530 623 137 137 173 167 173 145z m-885
-1299 l0 -249 -36 -70 c-20 -38 -67 -142 -104 -230 -37 -88 -74 -167 -81 -175
-12 -12 -14 35 -14 316 l0 331 28 44 c124 195 188 288 197 285 6 -2 10 -95 10
-252z m-1133 -579 l-2 -535 -86 -132 c-48 -73 -94 -145 -103 -160 -40 -68 -41
-57 -41 385 l0 422 30 64 c57 119 127 300 185 479 16 49 20 -52 17 -523z m858
52 l0 -349 -41 -106 c-22 -59 -49 -129 -59 -157 -10 -27 -29 -79 -43 -115 -13
-36 -37 -104 -52 -153 -15 -48 -30 -85 -32 -83 -3 2 -5 226 -5 498 -1 568 -16
485 126 700 58 89 93 133 98 125 4 -7 8 -169 8 -360z m-299 -1222 c-11 -33
-36 -121 -56 -195 -87 -323 -106 -408 -125 -550 -7 -47 -16 -104 -21 -127 -5
-23 -9 -53 -9 -67 0 -14 -3 -26 -7 -26 -7 0 -7 1378 0 1690 l2 115 103 155
c56 85 108 162 115 170 9 12 13 -99 15 -545 2 -532 1 -562 -17 -620z m-831
616 l0 -398 -27 -40 c-16 -21 -57 -82 -92 -134 -83 -122 -108 -152 -114 -136
-2 7 -5 162 -6 345 l-2 332 42 83 c23 45 74 144 112 220 38 75 73 135 78 131
5 -3 9 -175 9 -403z m-291 -823 c-6 -12 -46 -67 -89 -124 -43 -56 -86 -117
-96 -133 -10 -17 -23 -30 -28 -28 -7 2 -10 113 -9 311 2 283 4 309 21 334 10
15 32 52 49 82 40 74 123 219 142 250 15 23 16 -1 19 -323 1 -245 -1 -354 -9
-369z m-271 -85 l-3 -298 -77 -100 c-43 -55 -106 -136 -140 -180 -187 -244
-412 -466 -483 -477 -74 -11 32 277 213 579 33 54 90 148 127 208 164 266 232
376 287 468 33 53 64 97 70 97 6 0 8 -108 6 -297z"/>
</g>
</svg>
